PathFileType	4	(X/Y/Z)	c:\Git\powerlifing_model_clean\simulations\HC835B\Session1\HC835B_CUT_0003\marker_experimental.trc
DataRate	CameraRate	NumFrames	NumMarkers	Units	OrigDataRate	OrigDataStartFrame	OrigNumFrames
240.000000	240.000000	4	38	mm	240.000000	10	81
Frame#	Time	RPSI			LPSI			RASI			LASI			RTH1			RTH2			RTH3			RTH4			RSK1			RSK2			RSK3			RSK4			RCAL1			RCAL2			RCAL3			RST			RPT			RTN			RFMB			RSMB			RVMB			RFMH			RSMH			RVMH			RPM			LTH1			LTH2			LTH3			LTH4			LSK1			LSK2			LSK3			LSK4			LCAL1			LCAL2			LCAL3			LFMH			LVMH			
		X1	Y1	Z1	X2	Y2	Z2	X3	Y3	Z3	X4	Y4	Z4	X5	Y5	Z5	X6	Y6	Z6	X7	Y7	Z7	X8	Y8	Z8	X9	Y9	Z9	X10	Y10	Z10	X11	Y11	Z11	X12	Y12	Z12	X13	Y13	Z13	X14	Y14	Z14	X15	Y15	Z15	X16	Y16	Z16	X17	Y17	Z17	X18	Y18	Z18	X19	Y19	Z19	X20	Y20	Z20	X21	Y21	Z21	X22	Y22	Z22	X23	Y23	Z23	X24	Y24	Z24	X25	Y25	Z25	X26	Y26	Z26	X27	Y27	Z27	X28	Y28	Z28	X29	Y29	Z29	X30	Y30	Z30	X31	Y31	Z31	X32	Y32	Z32	X33	Y33	Z33	X34	Y34	Z34	X35	Y35	Z35	X36	Y36	Z36	X37	Y37	Z37	X38	Y38	Z38	

11	0.04166666666666666	291.1860046386719	1058.999755859375	142.9001770019532	190.8525543212891	1040.646362304688	187.799545288086	247.7772827148438	1007.530090332031	-62.06317520141603	55.35911560058595	949.039978027344	43.31694412231446	423.7410583496095	801.254577636719	-145.9893493652344	385.2932434082032	809.1784667968752	-192.5170898437501	419.2406311035157	739.4732055664064	-203.4685821533204	375.4939575195313	741.1387939453126	-242.4692687988282	552.5800170898439	346.2413635253907	-312.6483459472657	531.1207885742189	341.7411499023438	-370.1759643554688	561.9913330078126	296.6578063964844	-342.9977722167969	532.0166625976564	288.0087280273438	-394.3804626464845	594.9448852539064	136.245101928711	-315.8724670410157	570.6572875976564	91.71980285644533	-318.9464111328126	629.6765136718751	109.3763961791992	-336.5401916503907	531.7728271484376	104.7955932617188	-378.2837829589844	627.4039916992189	129.544189453125	-398.0032348632814	519.3452148437501	128.1822509765625	-431.7243957519532	517.9818115234376	113.1922836303711	-466.3050537109376	550.8320922851564	149.3399353027344	-486.2065734863282	629.6268920898439	108.8797760009766	-446.8772583007814	505.809539794922	87.65419006347658	-519.8590087890626	545.7088623046876	116.6284408569336	-546.5195312500001	630.0769042968751	101.5212554931641	-529.3084716796876	521.2660522460939	109.0268630981446	-601.4000244140626	144.2864990234375	665.8894653320314	201.1920776367188	124.7469177246094	638.5674438476564	151.5780487060547	166.9283752441407	584.7374877929689	192.3493652343751	159.5101165771485	561.5946044921876	136.3148040771485	408.5296630859376	436.4468383789064	465.6222229003907	410.7667236328126	381.7670288085938	468.1877746582032	436.4060058593751	406.4538574218751	504.2130126953126	450.718719482422	351.9222412109376	497.4789428710939	563.6342773437501	437.0210571289064	597.2655029296876	551.6123046875001	433.4855041503907	643.9259033203126	605.3809814453126	428.1003723144532	619.0318603515626	595.3168945312501	207.9783020019532	597.0160522460939	515.8126831054689	244.6754150390626	663.0168457031251	
12	0.04583333333333333	287.8151245117188	1056.49560546875	122.4518585205078	188.5020294189453	1039.098388671875	168.7087707519532	243.4042968750001	1005.32666015625	-81.18335723876955	51.29299926757814	948.3073730468752	25.82812118530274	419.0939025878907	797.8342285156252	-164.2720031738282	380.1235046386719	805.0552368164065	-210.444320678711	414.2130737304689	735.3024291992189	-220.8652496337891	370.0369567871094	736.1754150390626	-259.2458496093751	550.3583374023439	340.9052734375001	-328.7404785156251	528.1607666015626	336.3712158203126	-385.945526123047	559.7606811523439	291.6198425292969	-359.0744018554688	529.0701293945314	282.6899414062501	-410.0647888183595	593.7758178710939	130.9542388916016	-332.2070312500001	570.4125976562501	86.49565887451173	-334.9143676757813	628.8825683593751	104.8665618896485	-353.7055358886719	530.3163452148439	99.07764434814456	-393.5385131835939	625.1901855468751	125.1817703247071	-414.9796447753907	515.6844482421876	122.4217300415039	-446.3970642089845	514.5636596679689	107.3882293701172	-481.2754821777345	546.5557861328126	143.9536590576172	-501.835662841797	626.6504516601564	104.5110855102539	-463.9535522460939	501.8927307128907	81.68745422363283	-534.5312500000001	540.7829589843751	111.2727966308594	-561.9561157226564	625.5990600585939	97.3051681518555	-546.3415527343751	515.4261474609376	103.2196121215821	-616.4293823242189	139.2901611328125	662.0208740234376	179.6672668457032	118.67626953125	635.3430175781251	129.7680358886719	160.9010009765625	580.7034912109376	169.5744781494141	152.6972351074219	558.2535400390626	113.2656021118164	399.6773681640626	441.0299072265626	440.1870727539064	402.1843566894532	386.5658569335939	444.4901733398439	427.4803161621095	412.424041748047	479.8986206054689	442.3139038085939	357.8934326171876	474.7047729492189	553.1997070312501	447.1942138671876	573.3170166015626	541.0144653320314	444.1036682128907	619.9533081054689	594.9636230468751	439.4125976562501	595.4882202148439	589.7110595703126	218.9009246826172	575.8867797851564	509.0989379882814	254.5204620361329	641.1483764648439	
13	0.05	283.8134155273438	1054.006469726563	102.8603134155274	186.4971618652344	1036.586669921875	150.1595153808594	239.3467559814454	1003.0908203125	-100.497314453125	47.19068145751954	947.4613037109377	8.514003753662111	414.3045349121095	794.315612792969	-182.6800842285157	374.9924926757813	800.8833618164065	-228.6535797119141	409.151824951172	731.0892944335939	-238.3547515869141	364.2287292480469	730.9735107421876	-275.9834594726563	548.1752319335939	335.5958557128907	-344.1087036132813	525.2264404296876	330.6145629882813	-401.0227966308595	557.4019165039064	286.1216735839844	-374.2698974609376	526.0575561523439	276.6882019042969	-424.8097534179689	593.1134033203126	126.0730133056641	-347.0501098632813	570.1004028320314	81.21440887451173	-349.1679687500001	627.8931884765626	100.2262268066407	-368.9483032226563	528.7920532226564	92.94483947753908	-407.1666564941407	622.9016113281251	120.271354675293	-430.2404174804689	512.7609863281251	116.1792373657227	-459.5021362304689	511.3137207031251	100.8919067382813	-494.6183471679689	542.2025146484376	137.8399353027344	-516.0258178710939	623.8800048828126	99.63568115234378	-479.1061096191407	498.2791137695314	74.75333404541017	-547.2216796875001	536.2946777343751	104.9437561035157	-575.8784790039064	621.4826660156251	92.14050292968751	-561.4735717773439	510.2707824707032	96.44634246826175	-629.8834228515626	134.2978973388672	657.9664916992189	157.7887115478516	111.9769668579102	632.3771972656251	107.396842956543	154.7935791015625	576.5405883789064	146.5098571777344	145.5604553222657	554.9304809570314	89.9451141357422	390.1302490234376	444.932830810547	414.1708068847657	393.3529052734376	390.7819824218751	419.9123840332032	418.2591552734376	417.753875732422	454.6585693359376	433.7617797851564	363.4516296386719	450.9427795410157	542.1335449218751	456.8128967285157	548.9187622070314	529.9262084960939	453.7689514160157	595.2888793945314	584.1198730468751	450.3091430664064	571.2825317382814	584.6724243164064	229.769271850586	553.5162353515626	502.7857055664064	263.6585998535157	618.0036621093751	
14	0.05416666666666667	280.2953491210938	1051.287109375	82.00928497314455	183.9648742675782	1034.90625	130.6587677001953	235.5708312988282	1000.805847167969	-119.9252471923828	43.38233184814454	946.3176269531252	-8.854419708251955	409.4203491210939	790.665466308594	-201.1149291992188	370.0725402832032	796.6654052734377	-247.1955261230469	404.0097961425782	726.6968383789064	-256.0093078613282	358.7419128417969	726.1748046875001	-293.2806091308594	545.8854370117189	330.1323547363282	-358.8316345214844	522.1928710937501	324.4429626464844	-415.3779907226564	554.9524536132814	280.4654235839844	-388.5792846679689	522.9879150390626	270.3118286132813	-438.5678100585939	591.7306518554689	120.551025390625	-360.1738586425782	569.2039794921876	75.43533325195314	-361.9107360839844	626.7216796875001	95.25638580322267	-382.3855590820313	527.1137084960939	86.53506469726564	-419.3090820312501	620.6372680664064	114.8624496459961	-443.7496337890626	510.3211059570314	108.6974029541016	-471.9048767089845	508.3456420898439	93.86118316650392	-506.3924865722657	538.2567749023439	132.0537719726563	-529.8875732421876	621.0926513671876	93.90691375732423	-492.5372314453126	495.100799560547	67.27674865722658	-558.9820556640626	532.2756958007814	97.76052093505862	-588.0978393554689	617.7331542968751	86.07867431640626	-574.8060913085939	505.600799560547	88.61793518066408	-641.7670288085939	129.3107452392578	653.8013305664064	135.4787292480469	106.1816635131836	629.1669921875001	85.16245269775392	148.49365234375	571.9681396484376	122.9877700805664	138.3133087158203	551.4785156250001	66.29002380371095	380.3470764160157	448.440155029297	387.7059631347657	383.8092346191407	395.0762939453126	395.5731201171876	408.704803466797	422.522918701172	428.838592529297	424.921112060547	369.1569213867188	426.9556274414064	531.1722412109376	465.8619995117189	523.4867553710939	518.7722167968751	462.7306213378907	569.9161376953126	573.2068481445314	460.6662902832032	546.0390014648439	579.6444091796876	239.9746246337891	529.4015502929689	496.8570556640626	271.9848937988282	593.8601074218751	
